<?xml version="1.0" encoding="utf-8"?>
<!-- Generator: Adobe Illustrator 21.0.0, SVG Export Plug-In . SVG Version: 6.00 Build 0)  -->
<svg version="1.1" id="Capa_1" xmlns="http://www.w3.org/2000/svg" xmlns:xlink="http://www.w3.org/1999/xlink" x="0px" y="0px"
	 viewBox="0 0 20 20" style="enable-background:new 0 0 20 20;" xml:space="preserve">
<path d="M19.6,17.8l-4.3-4.3c1-1.4,1.7-3.1,1.7-5C17,3.8,13.2,0,8.5,0S0,3.8,0,8.5S3.8,17,8.5,17c1.9,0,3.6-0.6,5-1.7l4.3,4.3
	c0.2,0.2,0.6,0.4,0.9,0.4s0.7-0.1,0.9-0.4C20.1,19.1,20.1,18.3,19.6,17.8z M2.5,8.5c0-3.3,2.7-6,6-6s6,2.7,6,6s-2.7,6-6,6
	S2.5,11.8,2.5,8.5z"/>
</svg>
